<?xml version="1.0" encoding="iso-8859-1"?>
<!-- Generator: Adobe Illustrator 19.0.0, SVG Export Plug-In . SVG Version: 6.00 Build 0)  -->
<svg version="1.1" id="Capa_1" xmlns="http://www.w3.org/2000/svg" xmlns:xlink="http://www.w3.org/1999/xlink" x="0px" y="0px"
	 viewBox="0 0 512 512" style="enable-background:new 0 0 512 512;" xml:space="preserve">
<path style="fill:#F2F2F0;" d="M473.892,431.986v71.773c0,4.552-3.69,8.241-8.241,8.241H46.347c-4.552,0-8.241-3.69-8.241-8.241
	v-71.773c0-37.53,25.569-70.228,61.996-79.262l112.733-27.98h86.329l112.733,27.98C448.323,361.758,473.892,394.456,473.892,431.986
	z"/>
<polygon style="fill:#00C3FF;" points="284.679,512 227.318,512 239.578,424.187 241.916,407.437 270.092,407.437 272.43,424.187 
	"/>
<polygon style="fill:#00AAF0;" points="272.43,424.187 239.578,424.187 241.916,407.437 270.092,407.437 "/>
<g>
	<path style="fill:#E5E5DA;" d="M94.415,354.362c-20.892,19.058-34.058,50.695-34.058,77.624V512h-14.01
		c-4.552,0-8.241-3.69-8.241-8.241v-71.773C38.105,396.445,61.037,365.23,94.415,354.362z"/>
	<path style="fill:#E5E5DA;" d="M417.585,354.362c20.892,19.058,34.058,50.695,34.058,77.624V512h14.01
		c4.552,0,8.241-3.69,8.241-8.241v-71.773C473.895,396.445,450.963,365.23,417.585,354.362z"/>
</g>
<path style="fill:#00C3FF;" d="M235.272,410.058l-12.534-21.709c-1.69-2.927-1.69-6.533,0-9.46l12.534-21.709
	c1.69-2.927,4.813-4.73,8.193-4.73h25.067c3.38,0,6.503,1.803,8.193,4.73l12.534,21.709c1.69,2.927,1.69,6.533,0,9.46
	l-12.534,21.709c-1.69,2.927-4.813,4.73-8.193,4.73h-25.067C240.085,414.788,236.962,412.985,235.272,410.058z"/>
<rect x="210.6" y="254.62" style="fill:#F7C9A4;" width="90.79" height="84.1"/>
<path style="fill:#FFD9B6;" d="M397.842,173.276c0,16.209-11.26,29.791-26.374,33.33c-2.529,0.608-5.156,0.924-7.867,0.924
	c-18.921,0-34.254-15.333-34.254-34.254c0-18.908,15.333-34.242,34.254-34.242c2.821,0,5.557,0.34,8.171,0.985
	C386.74,143.679,397.842,157.189,397.842,173.276z"/>
<path style="fill:#F7C9A4;" d="M371.771,140.019v58.257c0,2.797-0.097,5.581-0.304,8.329c-2.529,0.608-5.156,0.924-7.867,0.924
	c-18.921,0-34.254-15.333-34.254-34.254c0-18.908,15.333-34.242,34.254-34.242C366.421,139.034,369.157,139.375,371.771,140.019z"/>
<path style="fill:#FFD9B6;" d="M182.663,173.276c0,18.921-15.333,34.254-34.254,34.254c-2.712,0-5.35-0.316-7.88-0.924
	c-15.127-3.551-26.374-17.121-26.374-33.33c0-16.087,11.102-29.585,26.07-33.245c2.614-0.657,5.362-0.997,8.184-0.997
	C167.33,139.034,182.663,154.368,182.663,173.276z"/>
<path style="fill:#F7C9A4;" d="M182.663,173.276c0,18.921-15.333,34.254-34.254,34.254c-2.712,0-5.35-0.316-7.88-0.924
	c-0.207-2.748-0.304-5.533-0.304-8.329v-58.245c2.614-0.657,5.362-0.997,8.184-0.997
	C167.33,139.034,182.663,154.368,182.663,173.276z"/>
<path style="fill:#FFD9B6;" d="M350.845,75.39v120.102c0,52.384-42.462,94.846-94.846,94.846s-94.846-42.462-94.846-94.846V75.39
	H350.845z"/>
<g>
	<path style="fill:#493030;" d="M212.193,187.306c-4.142,0-7.5-3.358-7.5-7.5v-8.201c0-4.142,3.358-7.5,7.5-7.5s7.5,3.358,7.5,7.5
		v8.201C219.693,183.948,216.335,187.306,212.193,187.306z"/>
	<path style="fill:#493030;" d="M299.807,187.306c-4.142,0-7.5-3.358-7.5-7.5v-8.201c0-4.142,3.358-7.5,7.5-7.5s7.5,3.358,7.5,7.5
		v8.201C307.307,183.948,303.949,187.306,299.807,187.306z"/>
</g>
<path style="fill:#F7C9A4;" d="M350.845,75.39v83.355l-31.836-5.331c-5.389-0.902-9.336-5.566-9.336-11.03v-12.522
	c0-2.148-1.589-3.96-3.719-4.237c-19.706-2.569-53.503-6.04-97.577-7.005c-2.393-0.052-4.36,1.879-4.36,4.272v19.57
	c0,5.51-4.013,10.198-9.456,11.049l-33.407,5.222V75.39H350.845z"/>
<path style="fill:#694B4B;" d="M373.965,35.562c-1.46,29.792-6.907,59.806-16.936,87.926c-1.844,5.182-3.874,10.374-6.109,15.545
	l-14.907-2.503c-1.504-0.247-2.843-0.886-3.935-1.823c-1.813-1.514-2.946-3.801-2.946-6.305V116.41c0-4.059-2.946-7.51-6.954-8.138
	c-16.802-2.637-63.109-8.849-129.319-9.333c-4.564-0.041-8.293,3.667-8.293,8.241v21.15c0,4.059-2.957,7.51-6.974,8.138
	l-16.38,2.565c0,0-28.927-97.682,21.376-115.524c0,0,6.336-23.509,32.08-23.509h151.406c2.225,0,4.244,0.886,5.728,2.318
	c3.534,3.335,2.641,9.288,2.661,13.705C374.491,22.539,374.316,29.056,373.965,35.562C373.913,36.613,374.603,23.746,373.965,35.562
	z"/>
<path style="fill:#5B4040;" d="M373.965,35.562c-1.46,29.789-6.909,59.809-16.936,87.926c-1.844,5.182-3.874,10.374-6.109,15.545
	l-14.907-2.503c-1.504-0.247-2.843-0.886-3.935-1.823C359.295,68.342,353.217,0,353.217,0h12.857c2.225,0,4.244,0.886,5.728,2.318
	c3.534,3.335,2.641,9.288,2.661,13.705C374.491,22.539,374.316,29.056,373.965,35.562C373.913,36.613,374.603,23.746,373.965,35.562
	z"/>
<g>
	<path style="fill:#E5E5DA;" d="M115.379,469.237V512H99.926v-42.763c0-4.265,3.461-7.726,7.726-7.726
		C111.918,461.511,115.379,464.972,115.379,469.237z"/>
	<path style="fill:#E5E5DA;" d="M412.071,469.237V512h-15.453v-42.763c0-4.265,3.461-7.726,7.726-7.726
		C408.61,461.511,412.071,464.972,412.071,469.237z"/>
	<path style="fill:#E5E5DA;" d="M199.062,304.282l56.937,34.304l-21.197,43.372c-2.506,5.129-9.342,6.218-13.318,2.122
		l-42.022-43.286c-2.262-2.33-2.945-5.77-1.744-8.787l9.434-23.711C189.032,303.567,194.704,301.656,199.062,304.282z"/>
	<path style="fill:#E5E5DA;" d="M312.936,304.282l-56.937,34.304l21.197,43.372c2.506,5.129,9.342,6.218,13.318,2.122l42.022-43.286
		c2.262-2.33,2.945-5.77,1.744-8.787l-9.434-23.711C322.966,303.567,317.294,301.656,312.936,304.282z"/>
</g>
<g>
</g>
<g>
</g>
<g>
</g>
<g>
</g>
<g>
</g>
<g>
</g>
<g>
</g>
<g>
</g>
<g>
</g>
<g>
</g>
<g>
</g>
<g>
</g>
<g>
</g>
<g>
</g>
<g>
</g>
</svg>
